<svg width="73" height="73" viewBox="0 0 73 73" fill="none" xmlns="http://www.w3.org/2000/svg">
<circle cx="36.5" cy="36.5" r="36.5" fill="#F3F5F7"/>
<g clip-path="url(#clip0_1_200)">
<path d="M41.6008 27.0175C39.6782 27.4314 37.8757 29.1319 36.5668 29.1319C35.2578 29.1319 33.4551 27.4314 31.5327 27.0175C27.4547 26.484 21.666 29.3332 21.666 38.0926C21.666 46.8516 28.0088 54 30.7274 54C33.7477 54 34.1504 52.5904 36.5668 52.5904C38.9831 52.5904 39.3858 54 42.4061 54C45.1248 54 51.4675 46.8516 51.4675 38.0926C51.4675 29.3332 45.6789 26.484 41.6008 27.0175Z" fill="url(#paint0_radial_1_200)"/>
<path d="M43.678 27.0349C42.9621 26.934 42.259 26.9313 41.6008 27.0175C39.6784 27.4314 37.8757 29.1319 36.5668 29.1319C36.5336 29.1319 36.4997 29.13 36.4658 29.1279V31.2596L38.2493 31.592L50.5241 33.8807L43.678 27.0349Z" fill="url(#paint1_linear_1_200)"/>
<path d="M41.6008 27.0175C39.6782 27.4314 37.8757 29.1319 36.5668 29.1319C36.4997 29.1319 36.4311 29.1263 36.3614 29.1177C36.6503 29.8085 36.9483 30.2969 37.0546 30.4625C37.0522 30.4732 37.0493 30.4838 37.0466 30.4948L37.1443 30.5541L50.5409 43.9445C51.115 42.1316 51.4675 40.1567 51.4675 38.0926C51.4675 29.3332 45.6789 26.484 41.6008 27.0175Z" fill="url(#paint2_linear_1_200)"/>
<path d="M37.0955 30.5244C37.0955 30.5244 30.9466 21.5507 44.5199 19.0182C45.0863 18.9127 45.6334 19.2764 45.7622 19.8379C46.3811 22.5381 47.1293 29.9033 37.0955 30.5244Z" fill="url(#paint3_linear_1_200)"/>
<path d="M45.7622 19.8379C45.6909 19.5266 45.4906 19.2764 45.23 19.133C40.7329 24.0367 37.0955 30.5244 37.0955 30.5244C47.1293 29.9033 46.3811 22.5381 45.7622 19.8379Z" fill="url(#paint4_linear_1_200)"/>
<path d="M43.5215 23.1638C43.4166 23.2012 43.3087 23.2311 43.2024 23.2618C43.0964 23.293 42.9909 23.324 42.8841 23.3491C42.7778 23.3766 42.667 23.3886 42.5581 23.4028C42.4491 23.4161 42.3469 23.4463 42.2481 23.4922C42.1503 23.5395 42.0545 23.591 41.9583 23.6554C42.0382 23.5275 42.118 23.3998 42.1976 23.2717L42.5949 22.6511C42.7266 22.4431 42.8694 22.2452 43.0043 22.0393C43.2807 21.6332 43.5704 21.2404 43.8881 20.8657L43.8107 20.7819L43.5269 21.0265L43.384 21.1498C43.3375 21.192 43.2945 21.2366 43.2497 21.2799C43.0753 21.4572 42.8905 21.6294 42.7258 21.815C42.3834 22.1784 42.0614 22.5574 41.7364 22.9352C41.6758 23.0094 41.6152 23.0839 41.5546 23.1582C41.5548 23.0783 41.549 22.999 41.5305 22.9197C41.506 22.8129 41.479 22.7045 41.4681 22.5955C41.4547 22.4863 41.4472 22.3768 41.4398 22.2666C41.4317 22.1563 41.4224 22.0447 41.4213 21.9333C41.4082 21.7087 41.4165 21.4842 41.4181 21.2524L41.3567 21.2372C41.2568 21.4473 41.1722 21.6668 41.1068 21.893C41.0726 22.0059 41.0464 22.1205 41.0189 22.2361C40.9976 22.352 40.9759 22.4687 40.9607 22.5862C40.9444 22.7037 40.9209 22.8223 40.903 22.9419C40.8875 23.0615 40.8923 23.1814 40.9223 23.2984C40.9284 23.3213 40.9351 23.3443 40.942 23.3673C41.0181 23.6159 40.9631 23.8864 40.8032 24.0912L40.8002 24.0952C40.5214 24.4519 40.2515 24.8138 39.9791 25.1748C39.9767 25.0626 39.965 24.9569 39.9484 24.8522C39.9297 24.7449 39.8961 24.6437 39.8451 24.5465C39.7946 24.4493 39.7412 24.3513 39.7035 24.2482C39.6632 24.1459 39.6288 24.0418 39.5938 23.9368C39.5585 23.8319 39.5217 23.7264 39.4926 23.6188C39.4237 23.4049 39.3754 23.1851 39.3193 22.9606L39.2557 22.9611C39.2117 23.1894 39.1847 23.4231 39.1778 23.6586C39.1732 23.7763 39.1767 23.8938 39.1788 24.0127C39.1871 24.1302 39.1954 24.2487 39.2101 24.3662C39.2237 24.4842 39.2306 24.6047 39.2432 24.7251C39.2581 24.8445 39.2928 24.9595 39.3511 25.0656C39.3775 25.1118 39.4058 25.1577 39.4365 25.2025C39.5871 25.4202 39.57 25.7128 39.4082 25.9222C39.2691 26.1019 39.1292 26.2813 38.9914 26.4619C38.8165 26.6904 38.6536 26.927 38.5003 27.1695C38.4963 27.0728 38.4856 26.9807 38.4712 26.8894C38.4528 26.7818 38.4191 26.6808 38.3681 26.5834C38.3174 26.4862 38.2643 26.3882 38.2263 26.2851C38.186 26.1831 38.1516 26.0787 38.1166 25.9737C38.0813 25.869 38.0445 25.7633 38.0154 25.656C37.9465 25.4418 37.8982 25.222 37.8421 24.9975L37.7785 24.998C37.7345 25.2263 37.7075 25.4602 37.7008 25.6955C37.696 25.8132 37.6995 25.931 37.7019 26.0496C37.7099 26.1671 37.7182 26.2856 37.7329 26.4034C37.7465 26.5211 37.7534 26.6416 37.766 26.762C37.7812 26.8816 37.8156 26.9967 37.8741 27.1025C37.9331 27.2069 38.002 27.3083 38.0891 27.3994C38.1887 27.5038 38.2143 27.6576 38.1481 27.7858C37.9767 28.1177 37.6714 28.7201 37.5313 29.0518C37.3395 29.5148 37.1638 29.9877 37.0466 30.4948L37.1443 30.5538C37.5403 30.2184 37.8861 29.8534 38.2157 29.479C38.5438 29.1038 38.8525 28.7174 39.1446 28.3206C39.15 28.3137 39.1551 28.3068 39.1601 28.2995C39.2547 28.1716 39.4218 28.1313 39.569 28.1914C39.6774 28.2357 39.7887 28.2627 39.8995 28.2809C40.0189 28.2987 40.1388 28.2915 40.2563 28.2643C40.3735 28.2344 40.4889 28.1991 40.6042 28.1711C40.7196 28.1441 40.8336 28.111 40.9468 28.0779C41.059 28.0392 41.1706 28.0015 41.2793 27.9564C41.4977 27.8686 41.7079 27.7623 41.9068 27.6419L41.8854 27.5823C41.6553 27.6074 41.4325 27.6378 41.2077 27.6475C41.0969 27.6573 40.985 27.6592 40.8745 27.6627C40.7639 27.6662 40.6542 27.6699 40.5444 27.6675C40.4347 27.6675 40.3241 27.6515 40.2154 27.6376C40.1065 27.6234 39.9999 27.6269 39.8929 27.6467C39.777 27.6699 39.6613 27.6998 39.542 27.7439C39.6814 27.5268 39.8136 27.3049 39.9385 27.0784C40.0368 26.8966 40.1722 26.653 40.2918 26.4394C40.4189 26.2122 40.6771 26.0851 40.9321 26.1379C41.0568 26.1638 41.1842 26.1711 41.2993 26.1898C41.4189 26.2079 41.5388 26.2007 41.6561 26.1732C41.7735 26.1433 41.8889 26.1083 42.0043 26.0803C42.1196 26.0533 42.2336 26.0199 42.3466 25.9871C42.4587 25.9481 42.5704 25.9107 42.6793 25.8653C42.8977 25.7775 43.1076 25.6714 43.3068 25.551L43.2852 25.4912C43.055 25.5163 42.8323 25.547 42.6077 25.5566C42.4967 25.5665 42.3848 25.5684 42.2742 25.5716C42.1639 25.5751 42.0539 25.5788 41.9442 25.5764C41.8344 25.5767 41.7241 25.5604 41.6152 25.5467C41.5065 25.5326 41.4 25.5361 41.2926 25.5556C41.0883 25.5964 40.8854 25.6568 40.6598 25.7863C40.9134 25.3662 41.1642 24.943 41.4243 24.5272L41.4339 24.5109C41.5864 24.2543 41.8665 24.092 42.1642 24.1096C42.2483 24.1147 42.3316 24.1117 42.4133 24.1043C42.5335 24.0917 42.6478 24.0549 42.7546 23.999C42.8606 23.9406 42.9637 23.8778 43.0681 23.8217C43.1733 23.7667 43.2753 23.7061 43.3765 23.6458C43.4753 23.5801 43.5741 23.516 43.6681 23.445C43.8577 23.305 44.0345 23.1496 44.1968 22.9835L44.1613 22.9309C43.9445 23.0129 43.7365 23.0984 43.5215 23.1638Z" fill="url(#paint5_linear_1_200)"/>
<path d="M37.3021 31.3506C37.0394 31.3728 36.7686 31.3848 36.4931 31.3848C36.2984 31.3848 36.1077 31.3792 35.9197 31.3672C35.8965 30.0318 35.7502 28.393 35.3096 26.7542C35.0476 25.7783 34.681 24.8012 34.1731 23.8877C33.3141 22.344 32.4449 21.7042 32.4358 21.6978C32.1279 21.4748 32.0561 21.0444 32.2761 20.7346C32.4975 20.4259 32.9242 20.3512 33.2348 20.5696C33.3611 20.6582 35.6311 22.3098 36.7243 26.6832C37.0514 27.9874 37.2728 29.5321 37.3021 31.3506Z" fill="url(#paint6_linear_1_200)"/>
<path d="M23.0805 45.3181C25.1104 50.4637 28.8152 54 30.7274 54C33.7477 54 34.1504 52.5904 36.5667 52.5904C38.9831 52.5904 39.3858 54 42.4061 54C44.3183 54 48.0231 50.4637 50.053 45.3181H23.0805Z" fill="url(#paint7_linear_1_200)"/>
<path d="M41.9092 29.706C41.7103 29.8542 41.506 29.9797 41.2964 30.0905C41.0827 30.196 40.8686 30.2918 40.648 30.3725C40.209 30.5367 39.7559 30.6542 39.2995 30.7471C38.3858 30.9314 37.4536 31.0091 36.5211 31.0099C35.5905 31.0064 34.6554 30.9306 33.7424 30.7466C33.285 30.6558 32.8345 30.533 32.3947 30.3706C32.1723 30.2932 31.9608 30.1933 31.7458 30.0897C31.6427 30.0326 31.5346 29.9786 31.4358 29.9113C31.329 29.8521 31.2363 29.7762 31.1327 29.706C31.271 29.9447 31.4529 30.1589 31.6582 30.3506L40.526 39.2181C40.734 39.4443 40.9778 39.6424 41.2339 39.8133C41.6558 40.0953 42.118 40.314 42.5944 40.4819C43.5509 40.8165 44.5589 40.9642 45.5659 40.9661C46.5707 40.9645 47.5822 40.8147 48.5371 40.4801C49.0127 40.3094 49.4763 40.0966 49.8976 39.8133C50.3161 39.5313 50.7051 39.1818 50.954 38.7511L41.9092 29.706Z" fill="url(#paint8_linear_1_200)"/>
<path d="M41.9092 29.706C41.6601 30.137 41.2713 30.4862 40.8528 30.7685C40.4312 31.0515 39.9676 31.2644 39.4921 31.435C38.5372 31.7699 37.5259 31.9197 36.5211 31.921C35.5141 31.9191 34.5058 31.7715 33.5493 31.4369C33.073 31.2692 32.6107 31.0502 32.1888 30.7685C31.7693 30.4886 31.3819 30.1362 31.1327 29.706C31.2363 29.7762 31.329 29.8521 31.4358 29.9113C31.5346 29.9786 31.6427 30.0326 31.7458 30.0897C31.9608 30.1933 32.1723 30.2932 32.3947 30.3706C32.8345 30.533 33.285 30.6558 33.7424 30.7466C34.6554 30.9306 35.5905 31.0064 36.5211 31.0099C37.4536 31.0091 38.3858 30.9314 39.2995 30.7471C39.7559 30.6542 40.209 30.5367 40.648 30.3725C40.8686 30.2918 41.0827 30.196 41.2964 30.0905C41.506 29.9797 41.7103 29.8542 41.9092 29.706Z" fill="url(#paint9_linear_1_200)"/>
<path d="M39.1895 37.0501C39.1895 32.0171 35.5849 27.9369 31.1383 27.9369C26.6918 27.9369 23.0871 32.0171 23.0871 37.0501C23.0871 42.0833 26.6918 46.1632 31.1383 46.1632C35.5849 46.1632 39.1895 42.0833 39.1895 37.0501Z" fill="url(#paint10_linear_1_200)"/>
</g>
<defs>
<radialGradient id="paint0_radial_1_200" cx="0" cy="0" r="1" gradientUnits="userSpaceOnUse" gradientTransform="translate(24.8926 27.751) scale(30.8424 30.8424)">
<stop stop-color="#FF4B3E"/>
<stop offset="0.4462" stop-color="#FD4A3D"/>
<stop offset="0.6069" stop-color="#F64939"/>
<stop offset="0.7215" stop-color="#EB4533"/>
<stop offset="0.8141" stop-color="#DA412A"/>
<stop offset="0.8935" stop-color="#C43A1F"/>
<stop offset="0.9625" stop-color="#A93311"/>
<stop offset="1" stop-color="#972E07"/>
</radialGradient>
<linearGradient id="paint1_linear_1_200" x1="43.1326" y1="31.3108" x2="41.4426" y2="25.4373" gradientUnits="userSpaceOnUse">
<stop stop-color="#FF1D25" stop-opacity="0"/>
<stop offset="1" stop-color="#FF1D25"/>
</linearGradient>
<linearGradient id="paint2_linear_1_200" x1="44.742" y1="33.1482" x2="38.9294" y2="22.9605" gradientUnits="userSpaceOnUse">
<stop stop-color="#972E07" stop-opacity="0"/>
<stop offset="1" stop-color="#582707"/>
</linearGradient>
<linearGradient id="paint3_linear_1_200" x1="40.1786" y1="24.0738" x2="46.9644" y2="29.2275" gradientUnits="userSpaceOnUse">
<stop stop-color="#ACC130"/>
<stop offset="1" stop-color="#97A03B"/>
</linearGradient>
<linearGradient id="paint4_linear_1_200" x1="44.1589" y1="26.495" x2="38.2704" y2="23.2203" gradientUnits="userSpaceOnUse">
<stop stop-color="#97A03B" stop-opacity="0"/>
<stop offset="1" stop-color="#575C55"/>
</linearGradient>
<linearGradient id="paint5_linear_1_200" x1="39.1308" y1="24.5643" x2="40.7792" y2="25.9285" gradientUnits="userSpaceOnUse">
<stop stop-color="#97A03B"/>
<stop offset="1" stop-color="#6C7D47"/>
</linearGradient>
<linearGradient id="paint6_linear_1_200" x1="32.1486" y1="25.9146" x2="37.3022" y2="25.9146" gradientUnits="userSpaceOnUse">
<stop stop-color="#C08552"/>
<stop offset="1" stop-color="#895738"/>
</linearGradient>
<linearGradient id="paint7_linear_1_200" x1="36.5667" y1="49.0107" x2="36.5667" y2="60.715" gradientUnits="userSpaceOnUse">
<stop stop-color="#972E07" stop-opacity="0"/>
<stop offset="1" stop-color="#582707"/>
</linearGradient>
<linearGradient id="paint8_linear_1_200" x1="42.2515" y1="36.8402" x2="36.4039" y2="24.1991" gradientUnits="userSpaceOnUse">
<stop stop-color="#972E07" stop-opacity="0"/>
<stop offset="1" stop-color="#582707"/>
</linearGradient>
<linearGradient id="paint9_linear_1_200" x1="36.5209" y1="29.0377" x2="36.5209" y2="32.2796" gradientUnits="userSpaceOnUse">
<stop stop-color="#972E07" stop-opacity="0"/>
<stop offset="1" stop-color="#582707"/>
</linearGradient>
<linearGradient id="paint10_linear_1_200" x1="29.9423" y1="36.244" x2="14.1107" y2="25.573" gradientUnits="userSpaceOnUse">
<stop offset="0.0013" stop-color="#E7EEED" stop-opacity="0"/>
<stop offset="0.7731" stop-color="#F9FBFA" stop-opacity="0.772549"/>
<stop offset="1" stop-color="white"/>
</linearGradient>
<clipPath id="clip0_1_200">
<rect width="35" height="35" fill="white" transform="translate(19 19)"/>
</clipPath>
</defs>
</svg>
