<svg width="73" height="73" viewBox="0 0 73 73" fill="none" xmlns="http://www.w3.org/2000/svg">
<circle cx="36.5" cy="36.5" r="36.5" fill="#F3F5F7"/>
<g clip-path="url(#clip0_1_216)">
<path d="M45.9748 40.7907C45.301 40.1103 44.6272 39.4299 43.9533 38.7495C42.3449 40.1384 40.9816 41.7006 39.8744 43.4017C39.7408 43.607 39.4158 43.5309 39.3944 43.2889L38.7993 36.5683H34.2006L33.6056 43.2889C33.5842 43.5309 33.2591 43.607 33.1255 43.4017C32.0183 41.7005 30.655 40.1384 29.0466 38.7495C28.3728 39.4299 27.6989 40.1103 27.0251 40.7906C29.6915 43.7391 31.7578 47.7283 32.4138 51.2927C32.6263 52.4467 33.6704 53.2805 34.8772 53.28C35.898 53.2795 37.102 53.2795 38.123 53.2799C39.3296 53.2803 40.3736 52.4465 40.586 51.2927C41.2421 47.7284 43.3085 43.7392 45.9748 40.7907Z" fill="url(#paint0_linear_1_216)"/>
<path d="M39.36 42.9L38.7994 36.5684H34.2006L33.64 42.9H39.36Z" fill="url(#paint1_linear_1_216)"/>
<path d="M33.6056 43.2889C33.5842 43.5309 33.2591 43.607 33.1255 43.4017C32.0184 41.7005 30.655 40.1384 29.0466 38.7495C28.3728 39.4299 27.6989 40.1103 27.0251 40.7907C29.6915 43.7392 31.7578 47.7283 32.4139 51.2927C32.4752 51.6259 32.6061 51.9321 32.79 52.1995L33.6056 43.2889Z" fill="url(#paint2_linear_1_216)"/>
<path d="M33.6056 43.2889C33.5842 43.5309 33.2591 43.607 33.1255 43.4017C32.0184 41.7005 30.655 40.1384 29.0466 38.7495C28.3728 39.4299 27.6989 40.1103 27.0251 40.7907C29.6915 43.7392 31.7578 47.7283 32.4139 51.2927C32.4752 51.6259 32.6061 51.9321 32.79 52.1995L33.6056 43.2889Z" fill="url(#paint3_linear_1_216)"/>
<path d="M39.3944 43.2889C39.4158 43.5309 39.7409 43.607 39.8745 43.4017C40.9816 41.7005 42.345 40.1384 43.9534 38.7495C44.6272 39.4299 45.3011 40.1103 45.9749 40.7907C43.3085 43.7392 41.2422 47.7283 40.5861 51.2927C40.5248 51.6259 40.3939 51.9321 40.21 52.1995L39.3944 43.2889Z" fill="url(#paint4_linear_1_216)"/>
<path d="M39.3944 43.2889C39.4158 43.5309 39.7409 43.607 39.8745 43.4017C40.9816 41.7005 42.345 40.1384 43.9534 38.7495C44.6272 39.4299 45.3011 40.1103 45.9749 40.7907C43.3085 43.7392 41.2422 47.7283 40.5861 51.2927C40.5248 51.6259 40.3939 51.9321 40.21 52.1995L39.3944 43.2889Z" fill="url(#paint5_linear_1_216)"/>
<path d="M30.6868 46.2371C31.509 47.9169 32.1116 49.6499 32.414 51.2927C32.6264 52.4467 33.6705 53.2806 34.8774 53.2801C35.8981 53.2796 37.1021 53.2795 38.1231 53.2799C39.3298 53.2804 40.3737 52.4466 40.5861 51.2927C40.8885 49.6499 41.4911 47.9169 42.3134 46.2371H30.6868Z" fill="url(#paint6_linear_1_216)"/>
<path d="M48.6479 31.9393C48.6462 31.9393 48.6447 31.9393 48.643 31.9393C48.4169 31.9395 48.2474 31.7361 48.3036 31.5234C48.4253 31.0639 48.4841 30.58 48.4697 30.0804C48.391 27.3685 46.1385 25.1481 43.3481 25.0345C42.9329 25.0176 42.5277 25.0471 42.1373 25.1176C41.955 25.1505 41.7772 25.036 41.7396 24.8595C41.2358 22.4963 39.082 20.7199 36.5 20.7199C33.918 20.7199 31.7642 22.4963 31.2604 24.8595C31.2228 25.0359 31.0451 25.1505 30.8627 25.1175C30.4723 25.0471 30.0671 25.0176 29.6519 25.0345C26.8615 25.1481 24.6091 27.3684 24.5303 30.0803C24.5159 30.5799 24.5747 31.0639 24.6964 31.5233C24.7527 31.7361 24.5832 31.9395 24.357 31.9392C24.3553 31.9392 24.3538 31.9392 24.3521 31.9392C21.3533 31.9392 18.9305 34.335 19.0015 37.2637C19.069 40.0507 21.4313 42.3113 24.3009 42.3373C25.9574 42.3524 27.442 41.6362 28.4339 40.501C28.5532 40.3645 28.7635 40.3433 28.9076 40.4548C29.8219 41.1622 30.9797 41.5851 32.2394 41.5851C33.8153 41.5851 35.2311 40.9227 36.2105 39.8697C36.3502 39.7195 36.5915 39.7211 36.7287 39.8736C37.7098 40.9644 39.1523 41.6535 40.7605 41.6535C42.036 41.6535 43.2068 41.2197 44.1262 40.4961C44.2692 40.3836 44.4794 40.4033 44.5998 40.5385C45.5958 41.6567 47.0738 42.3583 48.7205 42.3371C51.5818 42.3002 53.9312 40.0427 53.9984 37.2636C54.0694 34.335 51.6466 31.9393 48.6479 31.9393Z" fill="url(#paint7_linear_1_216)"/>
<path d="M19.4349 35.0861C19.14 35.7519 18.9827 36.4888 19.0015 37.2638C19.069 40.0508 21.4313 42.3113 24.3009 42.3374C25.9574 42.3525 27.442 41.6363 28.4339 40.5011C28.5532 40.3646 28.7635 40.3433 28.9076 40.4549C29.8219 41.1623 30.9797 41.5851 32.2394 41.5851C33.8153 41.5851 35.2311 40.9228 36.2105 39.8698C36.3502 39.7196 36.5915 39.7213 36.7287 39.8737C37.7098 40.9645 39.1523 41.6535 40.7605 41.6535C42.036 41.6535 43.2068 41.2197 44.1262 40.4962C44.2692 40.3837 44.4795 40.4034 44.5998 40.5386C45.5958 41.6567 47.0738 42.3584 48.7205 42.3371C51.5818 42.3003 53.9312 40.0427 53.9984 37.2637C54.0172 36.4887 53.8599 35.7519 53.565 35.0861H19.4349Z" fill="url(#paint8_linear_1_216)"/>
<path d="M48.4684 31.8943C48.3392 31.8229 48.2633 31.6758 48.3036 31.5234C48.4253 31.0639 48.4841 30.58 48.4697 30.0804C48.391 27.3685 46.1385 25.1481 43.3481 25.0345C42.9329 25.0176 42.5277 25.0471 42.1373 25.1176C42.0896 25.1262 42.0424 25.1243 41.9978 25.1143C39.5606 25.6573 37.7422 27.7755 37.7422 30.3078C37.7422 33.2515 40.1987 35.6377 43.2289 35.6377C43.3387 35.6377 43.4474 35.6335 43.5557 35.6273C44.2025 33.5661 46.1578 31.9839 48.4684 31.8943Z" fill="url(#paint9_linear_1_216)"/>
<path d="M31.0022 25.1142C30.9576 25.1242 30.9104 25.1261 30.8627 25.1175C30.4724 25.0471 30.0671 25.0175 29.6519 25.0345C26.8615 25.1481 24.6091 27.3684 24.5303 30.0803C24.5159 30.5799 24.5747 31.0639 24.6964 31.5233C24.7367 31.6757 24.6609 31.8229 24.5316 31.8943C24.5316 31.8943 28.0073 31.8333 29.4443 35.6272C29.5525 35.6334 29.6612 35.6376 29.771 35.6376C32.8013 35.6376 35.2577 33.2513 35.2577 30.3077C35.2578 27.7755 33.4394 25.6572 31.0022 25.1142Z" fill="url(#paint10_linear_1_216)"/>
</g>
<defs>
<linearGradient id="paint0_linear_1_216" x1="34.3916" y1="42.4832" x2="41.9494" y2="48.6521" gradientUnits="userSpaceOnUse">
<stop stop-color="#BBEC6C"/>
<stop offset="1" stop-color="#81B823"/>
</linearGradient>
<linearGradient id="paint1_linear_1_216" x1="36.5" y1="42.4" x2="36.5" y2="39.3187" gradientUnits="userSpaceOnUse">
<stop stop-color="#47A920" stop-opacity="0"/>
<stop offset="0.2298" stop-color="#45932F" stop-opacity="0.23"/>
<stop offset="0.7392" stop-color="#40694D" stop-opacity="0.739"/>
<stop offset="1" stop-color="#3E5959"/>
</linearGradient>
<linearGradient id="paint2_linear_1_216" x1="31.695" y1="44.4733" x2="34.1168" y2="41.5705" gradientUnits="userSpaceOnUse">
<stop stop-color="#47A920" stop-opacity="0"/>
<stop offset="0.242" stop-color="#459A2A" stop-opacity="0.242"/>
<stop offset="0.7001" stop-color="#417545" stop-opacity="0.7"/>
<stop offset="1" stop-color="#3E5959"/>
</linearGradient>
<linearGradient id="paint3_linear_1_216" x1="30.6559" y1="43.1931" x2="28.7207" y2="39.5128" gradientUnits="userSpaceOnUse">
<stop stop-color="#47A920" stop-opacity="0"/>
<stop offset="0.242" stop-color="#459A2A" stop-opacity="0.242"/>
<stop offset="0.7001" stop-color="#417545" stop-opacity="0.7"/>
<stop offset="1" stop-color="#3E5959"/>
</linearGradient>
<linearGradient id="paint4_linear_1_216" x1="41.3049" y1="44.4733" x2="38.8832" y2="41.5705" gradientUnits="userSpaceOnUse">
<stop stop-color="#47A920" stop-opacity="0"/>
<stop offset="0.242" stop-color="#459A2A" stop-opacity="0.242"/>
<stop offset="0.7001" stop-color="#417545" stop-opacity="0.7"/>
<stop offset="1" stop-color="#3E5959"/>
</linearGradient>
<linearGradient id="paint5_linear_1_216" x1="42.2869" y1="43.2384" x2="43.5565" y2="39.1836" gradientUnits="userSpaceOnUse">
<stop stop-color="#47A920" stop-opacity="0"/>
<stop offset="0.242" stop-color="#459A2A" stop-opacity="0.242"/>
<stop offset="0.7001" stop-color="#417545" stop-opacity="0.7"/>
<stop offset="1" stop-color="#3E5959"/>
</linearGradient>
<linearGradient id="paint6_linear_1_216" x1="36.5" y1="49.2889" x2="36.5" y2="53.5555" gradientUnits="userSpaceOnUse">
<stop stop-color="#47A920" stop-opacity="0"/>
<stop offset="0.242" stop-color="#459A2A" stop-opacity="0.242"/>
<stop offset="0.7001" stop-color="#417545" stop-opacity="0.7"/>
<stop offset="1" stop-color="#3E5959"/>
</linearGradient>
<linearGradient id="paint7_linear_1_216" x1="27.6978" y1="27.8174" x2="41.6816" y2="42.2125" gradientUnits="userSpaceOnUse">
<stop stop-color="#8BC727"/>
<stop offset="1" stop-color="#017B4E"/>
</linearGradient>
<linearGradient id="paint8_linear_1_216" x1="36.5" y1="36.4889" x2="36.5" y2="42.8445" gradientUnits="userSpaceOnUse">
<stop stop-color="#026841" stop-opacity="0"/>
<stop offset="0.2377" stop-color="#0A6644" stop-opacity="0.238"/>
<stop offset="0.6075" stop-color="#20614D" stop-opacity="0.608"/>
<stop offset="1" stop-color="#3E5959"/>
</linearGradient>
<linearGradient id="paint9_linear_1_216" x1="41.9216" y1="30.3337" x2="50.2483" y2="30.3337" gradientUnits="userSpaceOnUse">
<stop stop-color="#026841" stop-opacity="0"/>
<stop offset="0.2377" stop-color="#0A6644" stop-opacity="0.238"/>
<stop offset="0.6075" stop-color="#20614D" stop-opacity="0.608"/>
<stop offset="1" stop-color="#3E5959"/>
</linearGradient>
<linearGradient id="paint10_linear_1_216" x1="29.4808" y1="30.4993" x2="20.3821" y2="34.8794" gradientUnits="userSpaceOnUse">
<stop stop-color="#026841" stop-opacity="0"/>
<stop offset="0.2377" stop-color="#0A6644" stop-opacity="0.238"/>
<stop offset="0.6075" stop-color="#20614D" stop-opacity="0.608"/>
<stop offset="1" stop-color="#3E5959"/>
</linearGradient>
<clipPath id="clip0_1_216">
<rect width="35" height="34" fill="white" transform="translate(19 20)"/>
</clipPath>
</defs>
</svg>
