<svg width="73" height="73" viewBox="0 0 73 73" fill="none" xmlns="http://www.w3.org/2000/svg">
<circle cx="36.5" cy="36.5" r="36.5" fill="#F3F5F7"/>
<g clip-path="url(#clip0_1_235)">
<path d="M52.5488 40.9937C52.5488 42.3346 53.294 43.5063 54.4037 44.138C54.7486 44.3343 54.9668 44.6873 54.966 45.0758L54.9619 46.8217C54.9598 47.748 54.1858 48.4978 53.233 48.495L43.9207 48.4738C43.5454 48.473 43.1936 48.2889 42.9927 47.9806C42.3286 46.9613 41.1583 46.285 39.8259 46.285C38.5001 46.285 37.3347 46.9549 36.669 47.9655C36.4664 48.273 36.1138 48.4558 35.7382 48.455L20.7211 48.4201C19.7684 48.4174 18.9972 47.6649 19 46.7386L19.0119 41.7628C19.0131 41.275 19.3528 40.8545 19.8363 40.7241C21.4181 40.2975 22.5793 38.8876 22.5793 37.2141C22.5793 35.5467 21.4267 34.1409 19.8542 33.7087C19.371 33.5759 19.0328 33.1539 19.034 32.6658L19.0367 31.6072C19.0388 30.8513 19.5605 30.1895 20.3111 29.9923L40.339 24.7168C41.8714 24.3134 43.5041 24.4907 44.9072 25.213L54.0817 29.9367C54.6479 30.2281 55.0013 30.7999 54.9999 31.4232L54.986 36.9031C54.985 37.2927 54.7645 37.6459 54.4178 37.8413C53.3002 38.4712 52.5488 39.6471 52.5488 40.9937Z" fill="url(#paint0_linear_1_235)"/>
<path d="M54.6399 30.3944C54.492 30.208 54.3036 30.0505 54.082 29.9364L44.9076 25.213C43.5044 24.4905 41.8714 24.3133 40.3389 24.7169L20.311 29.9921C20.0736 30.0546 19.8593 30.1638 19.677 30.3073L54.6399 30.3944Z" fill="url(#paint1_linear_1_235)"/>
<path d="M27.0548 46.4224C28.8628 46.4224 30.3285 44.9974 30.3285 43.2396C30.3285 41.4817 28.8628 40.0568 27.0548 40.0568C25.2467 40.0568 23.781 41.4817 23.781 43.2396C23.781 44.9974 25.2467 46.4224 27.0548 46.4224Z" fill="url(#paint2_linear_1_235)"/>
<path d="M45.8563 45.048C47.6643 45.048 49.13 43.623 49.13 41.8652C49.13 40.1074 47.6643 38.6824 45.8563 38.6824C44.0482 38.6824 42.5825 40.1074 42.5825 41.8652C42.5825 43.623 44.0482 45.048 45.8563 45.048Z" fill="url(#paint3_linear_1_235)"/>
<path d="M34.8365 37.8457C36.1409 37.8457 37.1982 36.8177 37.1982 35.5496C37.1982 34.2816 36.1409 33.2536 34.8365 33.2536C33.5322 33.2536 32.4749 34.2816 32.4749 35.5496C32.4749 36.8177 33.5322 37.8457 34.8365 37.8457Z" fill="url(#paint4_linear_1_235)"/>
<path d="M48.6903 36.4713C49.9946 36.4713 51.052 35.4433 51.052 34.1752C51.052 32.9072 49.9946 31.8792 48.6903 31.8792C47.386 31.8792 46.3287 32.9072 46.3287 34.1752C46.3287 35.4433 47.386 36.4713 48.6903 36.4713Z" fill="url(#paint5_linear_1_235)"/>
<path d="M42.5362 32.1572C44.0491 32.1572 45.2756 30.9648 45.2756 29.4938C45.2756 28.0229 44.0491 26.8305 42.5362 26.8305C41.0232 26.8305 39.7967 28.0229 39.7967 29.4938C39.7967 30.9648 41.0232 32.1572 42.5362 32.1572Z" fill="url(#paint6_linear_1_235)"/>
<path d="M34.0551 26.372L29.3199 27.6192C29.8217 28.1685 30.5532 28.515 31.3683 28.515C32.6981 28.5151 33.8062 27.5938 34.0551 26.372Z" fill="url(#paint7_linear_1_235)"/>
<path d="M21.9032 39.3008C21.4111 39.9838 20.6842 40.4954 19.8363 40.724C19.3528 40.8544 19.0131 41.275 19.0119 41.7628L19 46.7385C18.9972 47.6649 19.7684 48.4174 20.7211 48.4201L35.7382 48.455C36.1138 48.4559 36.4664 48.273 36.669 47.9655C37.3347 46.9548 38.5002 46.285 39.8259 46.285C41.1583 46.285 42.3286 46.9613 42.9927 47.9806C43.1935 48.2889 43.5453 48.473 43.9206 48.4738L53.2329 48.495C54.1857 48.4977 54.9597 47.748 54.9618 46.8217L54.9659 45.0758C54.9668 44.6874 54.7485 44.3344 54.4037 44.138C53.294 43.5062 52.5487 42.3345 52.5487 40.9937C52.5487 40.4113 52.6895 39.861 52.9394 39.3728L21.9032 39.3008Z" fill="url(#paint8_linear_1_235)"/>
<path d="M45.2756 29.4938C45.2756 28.0229 44.0492 26.8305 42.5362 26.8305C41.0232 26.8305 39.7967 28.0229 39.7967 29.4938C39.7967 29.7963 39.8493 30.0868 39.9449 30.3578L45.1229 30.3707C45.2214 30.096 45.2756 29.8011 45.2756 29.4938Z" fill="url(#paint9_linear_1_235)"/>
</g>
<defs>
<linearGradient id="paint0_linear_1_235" x1="19" y1="36.5001" x2="55" y2="36.5001" gradientUnits="userSpaceOnUse">
<stop stop-color="#FEE97D"/>
<stop offset="1" stop-color="#FE860A"/>
</linearGradient>
<linearGradient id="paint1_linear_1_235" x1="36.6734" y1="26.657" x2="38.2782" y2="39.5876" gradientUnits="userSpaceOnUse">
<stop stop-color="#FE7701" stop-opacity="0"/>
<stop offset="0.398" stop-color="#E05915" stop-opacity="0.398"/>
<stop offset="1" stop-color="#AC2538"/>
</linearGradient>
<linearGradient id="paint2_linear_1_235" x1="29.67" y1="45.7822" x2="23.8312" y2="39.7765" gradientUnits="userSpaceOnUse">
<stop stop-color="#FEE97D"/>
<stop offset="1" stop-color="#FE860A"/>
</linearGradient>
<linearGradient id="paint3_linear_1_235" x1="48.4715" y1="44.4078" x2="42.6327" y2="38.4022" gradientUnits="userSpaceOnUse">
<stop stop-color="#FEE97D"/>
<stop offset="1" stop-color="#FE860A"/>
</linearGradient>
<linearGradient id="paint4_linear_1_235" x1="36.7232" y1="37.3839" x2="32.5112" y2="33.0515" gradientUnits="userSpaceOnUse">
<stop stop-color="#FEE97D"/>
<stop offset="1" stop-color="#FE860A"/>
</linearGradient>
<linearGradient id="paint5_linear_1_235" x1="50.5769" y1="36.0095" x2="46.3649" y2="31.6771" gradientUnits="userSpaceOnUse">
<stop stop-color="#FEE97D"/>
<stop offset="1" stop-color="#FE860A"/>
</linearGradient>
<linearGradient id="paint6_linear_1_235" x1="44.7246" y1="31.6214" x2="39.8388" y2="26.596" gradientUnits="userSpaceOnUse">
<stop stop-color="#FEE97D"/>
<stop offset="1" stop-color="#FE860A"/>
</linearGradient>
<linearGradient id="paint7_linear_1_235" x1="33.008" y1="28.2828" x2="30.4199" y2="25.6207" gradientUnits="userSpaceOnUse">
<stop stop-color="#FEE97D"/>
<stop offset="1" stop-color="#FE860A"/>
</linearGradient>
<linearGradient id="paint8_linear_1_235" x1="36.983" y1="42.849" x2="36.983" y2="50.6252" gradientUnits="userSpaceOnUse">
<stop stop-color="#FE7701" stop-opacity="0"/>
<stop offset="0.398" stop-color="#E05915" stop-opacity="0.398"/>
<stop offset="1" stop-color="#AC2538"/>
</linearGradient>
<linearGradient id="paint9_linear_1_235" x1="42.5362" y1="28.6929" x2="42.5362" y2="32.5779" gradientUnits="userSpaceOnUse">
<stop stop-color="#FE7701" stop-opacity="0"/>
<stop offset="0.398" stop-color="#E05915" stop-opacity="0.398"/>
<stop offset="1" stop-color="#AC2538"/>
</linearGradient>
<clipPath id="clip0_1_235">
<rect width="36" height="35" fill="white" transform="translate(19 19)"/>
</clipPath>
</defs>
</svg>
