<svg width="73" height="73" viewBox="0 0 73 73" fill="none" xmlns="http://www.w3.org/2000/svg">
<circle cx="36.5" cy="36.5" r="36.5" fill="#F3F5F7"/>
<g clip-path="url(#clip0_1_251)">
<path d="M54 32.2093V36.12C54 37.6607 53.685 39.17 53.09 40.566C52.4943 41.962 51.6186 43.2447 50.4973 44.334C47.9429 46.816 44.4779 48.21 40.8654 48.21H40.3184C39.0104 48.21 37.7291 48.4627 36.5439 48.9393C35.358 49.4167 34.2682 50.118 33.3431 51.0167C31.7029 52.61 29.5522 53.4073 27.4021 53.4073C25.252 53.4073 23.1012 52.61 21.461 51.0167C19.8853 49.486 19 47.41 19 45.2453V40.8887C19 39.806 19.221 39.576 19.6396 39.4253C20.0582 39.274 20.6731 39.2027 21.461 38.4373C22.3518 37.5713 23.0476 36.5513 23.5212 35.442C23.9549 34.424 24.202 33.3287 24.239 32.2093H54Z" fill="url(#paint0_linear_1_251)"/>
<path d="M54 32.2093V36.12C54 37.6607 53.685 39.17 53.09 40.566C52.4943 41.962 51.6186 43.2447 50.4973 44.334C47.9429 46.816 44.4779 48.21 40.8654 48.21H40.3184C39.0104 48.21 37.7291 48.4627 36.5439 48.9393C35.358 49.4167 34.2682 50.118 33.3431 51.0167C31.7029 52.61 29.5522 53.4073 27.4021 53.4073C25.252 53.4073 23.1012 52.61 21.461 51.0167C19.8853 49.486 19 47.41 19 45.2453V40.8887C19 39.806 19.221 39.576 19.6396 39.4253C20.0582 39.274 20.6731 39.2027 21.461 38.4373C22.3518 37.5713 23.0476 36.5513 23.5212 35.442C23.9549 34.424 24.202 33.3287 24.239 32.2093H54Z" fill="url(#paint1_linear_1_251)"/>
<path d="M19.0194 45.7927C19.1553 47.7574 20.0186 49.6155 21.461 51.0167C23.1012 52.61 25.252 53.4073 27.4021 53.4073C29.5522 53.4073 31.7029 52.61 33.3431 51.0167C34.2682 50.118 35.358 49.4167 36.5439 48.9393C37.7291 48.4627 39.0104 48.21 40.3184 48.21H40.8654C43.6941 48.21 46.4322 47.3551 48.7136 45.7927H19.0194Z" fill="url(#paint2_linear_1_251)"/>
<path d="M24.2446 27.9977C24.2446 30.4464 23.2433 32.7947 21.4609 34.5262C19.8852 36.0569 19 38.1329 19 40.2977V41.3341C19 43.4989 19.8852 45.5749 21.4609 47.1056C24.7421 50.2931 30.0621 50.2931 33.3433 47.1056C35.1932 45.3086 37.7021 44.2991 40.3182 44.2991H40.8651C44.4779 44.2991 47.9429 42.9049 50.4975 40.4232C52.7401 38.2447 54 35.29 54 32.2091C54 25.7935 48.6462 20.5927 42.0419 20.5927H31.8675C27.6575 20.5927 24.2446 23.908 24.2446 27.9977Z" fill="url(#paint3_linear_1_251)"/>
<path d="M49.36 39.1705C50.4285 38.1109 50.7232 36.5215 50.0946 35.1697C49.9742 34.9111 49.8467 34.6565 49.7117 34.4063C48.6645 32.4643 47.2254 30.8548 45.5281 29.7148C45.5138 29.7265 45.4999 29.7386 45.4856 29.7503C43.5426 31.335 41.1221 32.3828 38.4938 32.803C38.909 34.3125 39.1195 35.8842 39.1195 37.489C39.1195 39.3223 38.8445 41.1126 38.3114 42.7997C38.9676 42.6889 39.6384 42.6323 40.3182 42.6323H40.8651C44.0455 42.6323 47.0355 41.4292 49.2843 39.2446C49.3097 39.2201 49.3349 39.1953 49.36 39.1705Z" fill="url(#paint4_linear_1_251)"/>
<path d="M27.3357 47.8293C29.1465 47.8463 30.8516 47.1691 32.1301 45.9271C33.0745 45.0098 34.1533 44.2709 35.3234 43.727C36.0049 43.4102 36.5098 42.8222 36.723 42.1181C37.1656 40.6564 37.4038 39.0952 37.4038 37.4891C37.4038 35.942 37.1896 34.4304 36.7666 32.9861C36.4659 33.0023 36.1635 33.0111 35.8594 33.0111C32.2301 33.0111 28.8115 31.8531 26.2333 29.7504C26.107 29.6473 25.9842 29.5421 25.8634 29.4358C25.5451 31.7956 24.4461 33.9771 22.6884 35.6907C21.4376 36.9103 20.7157 38.5489 20.7157 40.2705V41.3341C20.7157 43.0906 21.4285 44.7407 22.7213 45.9725C23.9517 47.1449 25.6123 47.8131 27.3357 47.8293Z" fill="url(#paint5_linear_1_251)"/>
<path d="M42.0419 22.2593H31.8675C29.1899 22.2593 26.9237 23.9993 26.2018 26.3762C26.0522 26.8689 26.1876 27.4041 26.5577 27.771C28.755 29.9495 32.1083 31.3444 35.8595 31.3444C40.9576 31.3444 45.3212 28.7684 47.0459 25.1497C47.408 24.3899 47.0544 23.4939 46.2699 23.1471C44.9803 22.5771 43.5486 22.2593 42.0419 22.2593Z" fill="url(#paint6_linear_1_251)"/>
<path d="M48.9971 24.9123C48.534 26.2165 47.7869 27.4403 46.7809 28.5327C49.0165 30.1127 50.7685 32.3583 51.8833 34.9798C52.1471 34.0906 52.2842 33.1602 52.2842 32.2091C52.2843 29.3288 51.0175 26.7309 48.9971 24.9123Z" fill="url(#paint7_linear_1_251)"/>
<path d="M37.4038 37.4891C37.4038 39.0951 37.1657 40.6565 36.723 42.1185C36.5096 42.8225 36.0045 43.4105 35.323 43.7271C34.1536 44.2711 33.0748 45.0098 32.1305 45.9271C30.8513 47.1691 29.1466 47.8465 27.3355 47.8291C25.6123 47.8131 23.9515 47.1451 22.721 45.9725C21.4287 44.7405 20.7157 43.0905 20.7157 41.3345V40.2705C20.7157 39.1171 21.0396 38.0005 21.6312 37.0225H37.3963C37.4018 37.1778 37.4038 37.3331 37.4038 37.4891Z" fill="url(#paint8_linear_1_251)"/>
<path d="M27.8304 43.9543C29.8264 43.9543 31.4444 42.3824 31.4444 40.4435C31.4444 38.5045 29.8264 36.9327 27.8304 36.9327C25.8344 36.9327 24.2163 38.5045 24.2163 40.4435C24.2163 42.3824 25.8344 43.9543 27.8304 43.9543Z" fill="url(#paint9_linear_1_251)"/>
<path d="M24.217 40.5004C24.2316 41.3798 24.584 42.2549 25.2748 42.926C26.6862 44.2971 28.9745 44.2971 30.3858 42.926C31.0767 42.2549 31.4291 41.3799 31.4437 40.5004H24.217Z" fill="url(#paint10_linear_1_251)"/>
<path d="M50.4012 37.0225C50.3154 37.8145 49.9592 38.5765 49.3601 39.1705C49.3347 39.1951 49.31 39.2198 49.2846 39.2445C47.0357 41.4291 44.0456 42.6325 40.8654 42.6325H40.3184C39.6383 42.6325 38.9678 42.6891 38.3111 42.7998C38.8443 41.1125 39.1195 39.3225 39.1195 37.4891C39.1195 37.3331 39.1175 37.1778 39.1126 37.0225H50.4012Z" fill="url(#paint11_linear_1_251)"/>
</g>
<defs>
<linearGradient id="paint0_linear_1_251" x1="30.6632" y1="29.8086" x2="39.1555" y2="45.2199" gradientUnits="userSpaceOnUse">
<stop stop-color="#FFDFCF"/>
<stop offset="1" stop-color="#FFA78F"/>
</linearGradient>
<linearGradient id="paint1_linear_1_251" x1="17.4583" y1="25.1886" x2="50.772" y2="53.8278" gradientUnits="userSpaceOnUse">
<stop stop-color="#F89580" stop-opacity="0"/>
<stop offset="0.2608" stop-color="#F2917C" stop-opacity="0.262"/>
<stop offset="0.5874" stop-color="#E38670" stop-opacity="0.589"/>
<stop offset="0.9476" stop-color="#CA735D" stop-opacity="0.95"/>
<stop offset="0.9972" stop-color="#C5715A"/>
</linearGradient>
<linearGradient id="paint2_linear_1_251" x1="33.8665" y1="47.2149" x2="33.8665" y2="52.9211" gradientUnits="userSpaceOnUse">
<stop stop-color="#F89580" stop-opacity="0"/>
<stop offset="0.3584" stop-color="#E98A75" stop-opacity="0.359"/>
<stop offset="0.9972" stop-color="#C5715A"/>
</linearGradient>
<linearGradient id="paint3_linear_1_251" x1="23.3975" y1="23.3281" x2="45.1298" y2="45.6995" gradientUnits="userSpaceOnUse">
<stop stop-color="#FFDFCF"/>
<stop offset="1" stop-color="#FFA78F"/>
</linearGradient>
<linearGradient id="paint4_linear_1_251" x1="38.7328" y1="33.0265" x2="48.99" y2="43.5854" gradientUnits="userSpaceOnUse">
<stop stop-color="#FD4755"/>
<stop offset="1" stop-color="#D2024E"/>
</linearGradient>
<linearGradient id="paint5_linear_1_251" x1="22.9622" y1="32.8915" x2="37.3175" y2="47.6691" gradientUnits="userSpaceOnUse">
<stop stop-color="#FD4755"/>
<stop offset="1" stop-color="#D2024E"/>
</linearGradient>
<linearGradient id="paint6_linear_1_251" x1="31.5962" y1="20.7105" x2="44.202" y2="33.6871" gradientUnits="userSpaceOnUse">
<stop stop-color="#FD4755"/>
<stop offset="1" stop-color="#D2024E"/>
</linearGradient>
<linearGradient id="paint7_linear_1_251" x1="47.3088" y1="26.8989" x2="55.1097" y2="34.9293" gradientUnits="userSpaceOnUse">
<stop stop-color="#FD4755"/>
<stop offset="1" stop-color="#D2024E"/>
</linearGradient>
<linearGradient id="paint8_linear_1_251" x1="29.0598" y1="38.9778" x2="29.0598" y2="47.451" gradientUnits="userSpaceOnUse">
<stop stop-color="#C00148" stop-opacity="0"/>
<stop offset="0.3112" stop-color="#AA0E3F" stop-opacity="0.311"/>
<stop offset="0.9578" stop-color="#713028" stop-opacity="0.958"/>
<stop offset="1" stop-color="#6D3326"/>
</linearGradient>
<linearGradient id="paint9_linear_1_251" x1="25.6472" y1="38.3227" x2="30.6696" y2="43.4928" gradientUnits="userSpaceOnUse">
<stop stop-color="#EAF6FF"/>
<stop offset="1" stop-color="#B3DAFE"/>
</linearGradient>
<linearGradient id="paint10_linear_1_251" x1="27.8304" y1="40.9445" x2="27.8304" y2="43.6796" gradientUnits="userSpaceOnUse">
<stop stop-color="#D8ECFE" stop-opacity="0"/>
<stop offset="0.7867" stop-color="#9BD1FE" stop-opacity="0.787"/>
<stop offset="1" stop-color="#8AC9FE"/>
</linearGradient>
<linearGradient id="paint11_linear_1_251" x1="44.3561" y1="37.9778" x2="44.3561" y2="42.8788" gradientUnits="userSpaceOnUse">
<stop stop-color="#C00148" stop-opacity="0"/>
<stop offset="0.3112" stop-color="#AA0E3F" stop-opacity="0.311"/>
<stop offset="0.9578" stop-color="#713028" stop-opacity="0.958"/>
<stop offset="1" stop-color="#6D3326"/>
</linearGradient>
<clipPath id="clip0_1_251">
<rect width="35" height="34" fill="white" transform="translate(19 20)"/>
</clipPath>
</defs>
</svg>
